<svg id="Camada_1" data-name="Camada 1" xmlns="http://www.w3.org/2000/svg" viewBox="0 0 527.69 185.64"><defs><style>.cls-1{fill:#6d28d9;}.cls-3{fill:none;}</style></defs><title>Prancheta 1</title><rect class="cls-1" x="357.02" y="93.49" width="128.46" height="56.2"/><path class="cls-2" d="M375.82,110.63h-11.9L366,102.7h32.41l-2.12,7.93h-11.9L376,141.82h-8.6Z"/><path class="cls-2" d="M407.51,141.17a16.41,16.41,0,0,1-5.65-3.66,16.58,16.58,0,0,1-3.63-5.5,18,18,0,0,1-1.28-6.85,22.25,22.25,0,0,1,1.7-8.52,23.55,23.55,0,0,1,4.81-7.4,24,24,0,0,1,7.43-5.23,22.74,22.74,0,0,1,9.58-2,19.75,19.75,0,0,1,7.32,1.31,16.24,16.24,0,0,1,9.28,9.17,18.06,18.06,0,0,1,1.28,6.84,22.18,22.18,0,0,1-1.7,8.52,23.49,23.49,0,0,1-4.81,7.41,23.81,23.81,0,0,1-7.43,5.22,22.63,22.63,0,0,1-9.58,2A19.47,19.47,0,0,1,407.51,141.17Zm13.93-8a14.19,14.19,0,0,0,4.29-3.44,15.92,15.92,0,0,0,2.76-4.72,14.7,14.7,0,0,0,1-5.14,11.84,11.84,0,0,0-.65-4,8.75,8.75,0,0,0-1.91-3.16,8.29,8.29,0,0,0-3.14-2.07,12,12,0,0,0-4.3-.73,11.69,11.69,0,0,0-5.61,1.35,14.2,14.2,0,0,0-4.3,3.43,16.24,16.24,0,0,0-2.75,4.72,14.8,14.8,0,0,0-1,5.15,11.84,11.84,0,0,0,.65,4,8.84,8.84,0,0,0,1.91,3.16,8.44,8.44,0,0,0,3.14,2.07,12.74,12.74,0,0,0,9.91-.62Z"/><path class="cls-2" d="M450.87,102.7h12.41a24.76,24.76,0,0,1,7.18.92,12.24,12.24,0,0,1,5.11,3,10.87,10.87,0,0,1,3,8,14,14,0,0,1-1.48,6.49,14.26,14.26,0,0,1-4,4.8,17.73,17.73,0,0,1-6,3,26.8,26.8,0,0,1-7.49,1h-7.43L449,141.82h-8.61ZM460,122.43a12,12,0,0,0,6.93-1.82,5.9,5.9,0,0,0,2.62-5.17,4.43,4.43,0,0,0-1.28-3.24,5.45,5.45,0,0,0-2.15-1.31,10.39,10.39,0,0,0-3.22-.42h-5.59l-3.18,12Z"/><path class="cls-1" d="M110.14,162.74a69.92,69.92,0,1,1,69.92-69.92A70,70,0,0,1,110.14,162.74Zm0-128.46a58.54,58.54,0,1,0,58.54,58.54A58.61,58.61,0,0,0,110.14,34.28Z"/><polygon class="cls-1" points="129.33 105.48 148.44 105.48 110.24 50.67 72.04 105.48 91.15 105.48 110.24 78.09 129.33 105.48"/><polygon class="cls-3" points="103.08 115.78 110.24 126.05 117.4 115.78 110.24 105.5 103.08 115.78"/><path class="cls-1" d="M124.59,115.76h0L110.24,95.19,95.91,115.76h0v0h0l14.33,20.57,14.33-20.57h0Zm-14.35,10.29-7.16-10.27,7.16-10.28,7.16,10.28Z"/><path class="cls-1" d="M197.06,82.34l6.82-38.45h22.24a11.12,11.12,0,0,1,5.62,1.37,9.63,9.63,0,0,1,3.71,3.83,11.53,11.53,0,0,1,1.34,5.64,16.83,16.83,0,0,1-1,6,14.47,14.47,0,0,1-3,4.84,14,14,0,0,1-4.58,3.24,14.63,14.63,0,0,1-5.95,1.17H211.59l-2.18,12.41Zm16.15-21.41h6.43a4.38,4.38,0,0,0,2.54-.67,4,4,0,0,0,1.45-1.78,6.2,6.2,0,0,0,.48-2.46,2.86,2.86,0,0,0-.87-2.24,3.78,3.78,0,0,0-2.6-.78h-6Z"/><path class="cls-1" d="M237.46,82.34l6.77-38.45h23.52a14,14,0,0,1,6.48,1.34,9.06,9.06,0,0,1,3.83,3.55,9.8,9.8,0,0,1,1.26,4.95,16.05,16.05,0,0,1-1.09,6.2,12.67,12.67,0,0,1-3,4.44,16.28,16.28,0,0,1-4.5,3l4.92,15H261.94l-3.58-12.91H252.1l-2.29,12.91Zm16.15-21.46h8.11a4.51,4.51,0,0,0,2.23-.64,5.46,5.46,0,0,0,1.85-1.76,4.68,4.68,0,0,0,.72-2.58,3.43,3.43,0,0,0-.78-2.34,2.6,2.6,0,0,0-2.07-.9H255Z"/><path class="cls-1" d="M300.44,83a25.41,25.41,0,0,1-9.92-1.74,13,13,0,0,1-6.23-5.16,16,16,0,0,1-2.12-8.53,22.86,22.86,0,0,1,.14-2.43c.09-.83.21-1.7.36-2.59a27.35,27.35,0,0,1,4-10.68,18,18,0,0,1,7.76-6.48,28.93,28.93,0,0,1,11.85-2.18,25.78,25.78,0,0,1,10,1.73,13.06,13.06,0,0,1,6.23,5.2,16.37,16.37,0,0,1,2.12,8.66c0,.75,0,1.53-.11,2.35s-.19,1.66-.34,2.51a26.49,26.49,0,0,1-4.1,10.68,18.72,18.72,0,0,1-7.88,6.48A28.86,28.86,0,0,1,300.44,83Zm1.06-9.22a9.9,9.9,0,0,0,3.66-.65A8.58,8.58,0,0,0,308,71.33a9.82,9.82,0,0,0,2-2.82,13.39,13.39,0,0,0,1.15-3.61c.18-1.08.33-2,.44-2.65s.2-1.24.26-1.65.09-.73.11-1,0-.43,0-.62a7.64,7.64,0,0,0-.76-3.49,5.26,5.26,0,0,0-2.26-2.29,8,8,0,0,0-3.8-.81,10,10,0,0,0-3.66.64,8.43,8.43,0,0,0-2.85,1.82,10.13,10.13,0,0,0-2,2.82,13,13,0,0,0-1.15,3.61c-.19,1.11-.33,2-.45,2.71s-.19,1.23-.25,1.64-.09.73-.11.95,0,.43,0,.62a7.67,7.67,0,0,0,.73,3.44A5.14,5.14,0,0,0,297.7,73,8,8,0,0,0,301.5,73.79Z"/><path class="cls-1" d="M340.85,83q-7,0-10.59-2.68t-3.61-8.11a16,16,0,0,1,.11-1.81c.08-.62.17-1.26.28-1.93h11.57c-.07.48-.14.92-.19,1.31a7.26,7.26,0,0,0-.09,1.09,2.93,2.93,0,0,0,.73,2.24,3.41,3.41,0,0,0,2.34.67,5.08,5.08,0,0,0,3.3-1.09,6,6,0,0,0,1.79-3.77l4.41-25h12.35l-4.47,25.37a17.32,17.32,0,0,1-3.21,7.94,13.7,13.7,0,0,1-6.09,4.41A24.52,24.52,0,0,1,340.85,83Z"/><path class="cls-1" d="M364.71,82.34l6.81-38.45h33.25l-1.62,9.22h-20.9l-.95,5.31h17.89l-1.57,8.83H379.74l-1.06,5.87H400l-1.62,9.22Z"/><path class="cls-1" d="M414.94,82.34,420,53.73H407.4l1.73-9.84h37.55L445,53.73H432.38l-5.09,28.61Z"/><path class="cls-1" d="M463.28,83a25.41,25.41,0,0,1-9.92-1.74,13,13,0,0,1-6.23-5.16A15.92,15.92,0,0,1,445,67.58a20.5,20.5,0,0,1,.14-2.43c.09-.83.21-1.7.36-2.59a27.34,27.34,0,0,1,4-10.68,18.1,18.1,0,0,1,7.77-6.48,28.93,28.93,0,0,1,11.85-2.18,25.69,25.69,0,0,1,10,1.73,13,13,0,0,1,6.23,5.2,16.28,16.28,0,0,1,2.13,8.66c0,.75,0,1.53-.11,2.35s-.19,1.66-.34,2.51a26.35,26.35,0,0,1-4.11,10.68A18.66,18.66,0,0,1,475,80.83,28.81,28.81,0,0,1,463.28,83Zm1.06-9.22a10,10,0,0,0,3.66-.65,8.58,8.58,0,0,0,2.88-1.81,9.82,9.82,0,0,0,2-2.82,13.39,13.39,0,0,0,1.15-3.61c.18-1.08.33-2,.44-2.65s.2-1.24.25-1.65.1-.73.12-1,0-.43,0-.62a7.64,7.64,0,0,0-.75-3.49,5.26,5.26,0,0,0-2.26-2.29,8,8,0,0,0-3.8-.81,9.94,9.94,0,0,0-3.66.64,8.43,8.43,0,0,0-2.85,1.82,10,10,0,0,0-2,2.82,13,13,0,0,0-1.14,3.61c-.19,1.11-.34,2-.45,2.71s-.19,1.23-.25,1.64-.09.73-.11.95,0,.43,0,.62a7.67,7.67,0,0,0,.73,3.44A5.14,5.14,0,0,0,460.54,73,8,8,0,0,0,464.34,73.79Z"/><path class="cls-1" d="M184.57,142.11l6.82-38.45h12.35l-5.08,28.61h19.16l-1.73,9.84Z"/><path class="cls-1" d="M239.73,142.78a25.38,25.38,0,0,1-9.92-1.74,13,13,0,0,1-6.23-5.16,15.92,15.92,0,0,1-2.13-8.53,22.86,22.86,0,0,1,.14-2.43c.1-.84.22-1.7.37-2.6a27.2,27.2,0,0,1,4-10.67,18.1,18.1,0,0,1,7.77-6.48A28.93,28.93,0,0,1,245.6,103a25.73,25.73,0,0,1,10,1.73,13,13,0,0,1,6.23,5.2,16.28,16.28,0,0,1,2.13,8.66c0,.75,0,1.53-.12,2.35s-.18,1.66-.33,2.51a26.64,26.64,0,0,1-4.11,10.68,18.66,18.66,0,0,1-7.88,6.48A28.81,28.81,0,0,1,239.73,142.78Zm1.06-9.22a10,10,0,0,0,3.66-.65,8.58,8.58,0,0,0,2.88-1.81,10,10,0,0,0,2-2.82,13,13,0,0,0,1.14-3.61c.19-1.08.34-2,.45-2.65s.2-1.24.25-1.65.09-.73.11-1,0-.43,0-.62a7.64,7.64,0,0,0-.75-3.49,5.28,5.28,0,0,0-2.27-2.29,8,8,0,0,0-3.8-.81,10,10,0,0,0-3.66.64,8.43,8.43,0,0,0-2.85,1.82,10.13,10.13,0,0,0-2,2.82,13.07,13.07,0,0,0-1.14,3.6c-.19,1.12-.34,2-.45,2.72s-.2,1.23-.25,1.64-.1.73-.11,1,0,.43,0,.62a7.67,7.67,0,0,0,.73,3.44,5.09,5.09,0,0,0,2.23,2.29A8,8,0,0,0,240.79,133.56Z"/><path class="cls-1" d="M280.13,142.78q-7,0-10.59-2.68t-3.6-8.11a14,14,0,0,1,.11-1.81c.07-.62.17-1.26.28-1.93h11.56c-.07.48-.14.92-.19,1.31a7.18,7.18,0,0,0-.08,1.09,3,3,0,0,0,.72,2.24,3.45,3.45,0,0,0,2.35.67,5.12,5.12,0,0,0,3.3-1.09,6,6,0,0,0,1.78-3.77l4.42-25h12.35L298.07,129a17.43,17.43,0,0,1-3.21,7.94,13.78,13.78,0,0,1-6.1,4.41A24.44,24.44,0,0,1,280.13,142.78Z"/><path class="cls-1" d="M300.42,142.11l20.9-38.45h14.36l7.15,38.45H330.14l-.67-5.42H316l-2.57,5.42Zm19.61-14h8.38l-.72-6.15c-.08-.63-.15-1.26-.23-1.9s-.16-1.25-.25-1.87-.18-1.24-.25-1.87-.15-1.27-.22-1.9h-.23q-.56,1.23-1.17,2.49c-.41.83-.81,1.67-1.2,2.51s-.79,1.69-1.2,2.54Z"/></svg>